<mxfile host="app.diagrams.net" modified="2022-10-14T10:18:54.456Z" agent="5.0 (X11; Linux x86_64) AppleWebKit/537.36 (KHTML, like Gecko) Chrome/106.0.0.0 Safari/537.36" etag="2D48049_fMgXNRokAeHY" version="20.4.1" type="github">
  <diagram name="Page-1" id="5f0bae14-7c28-e335-631c-24af17079c00">
    <mxGraphModel dx="1580" dy="840" grid="1" gridSize="10" guides="1" tooltips="1" connect="1" arrows="1" fold="1" page="1" pageScale="1" pageWidth="1100" pageHeight="850" background="none" math="0" shadow="0">
      <root>
        <mxCell id="0" />
        <mxCell id="1" parent="0" />
        <mxCell id="h5-Fzo54TgHvA8wAvlDn-56" value="" style="rounded=1;whiteSpace=wrap;html=1;" vertex="1" parent="1">
          <mxGeometry x="200" y="75" width="180" height="155" as="geometry" />
        </mxCell>
        <mxCell id="h5-Fzo54TgHvA8wAvlDn-19" value="" style="rounded=1;whiteSpace=wrap;html=1;fillColor=#f5f5f5;fontColor=#333333;strokeColor=#666666;" vertex="1" parent="1">
          <mxGeometry x="410" y="80" width="667.5" height="750" as="geometry" />
        </mxCell>
        <mxCell id="h5-Fzo54TgHvA8wAvlDn-28" value="" style="rounded=1;whiteSpace=wrap;html=1;fillColor=#dae8fc;strokeColor=#6c8ebf;" vertex="1" parent="1">
          <mxGeometry x="440" y="140" width="610" height="420" as="geometry" />
        </mxCell>
        <mxCell id="h5-Fzo54TgHvA8wAvlDn-3" value="Client / Frontend" style="shape=umlActor;verticalLabelPosition=bottom;verticalAlign=top;html=1;outlineConnect=0;" vertex="1" parent="1">
          <mxGeometry x="60" y="230" width="30" height="60" as="geometry" />
        </mxCell>
        <mxCell id="h5-Fzo54TgHvA8wAvlDn-68" style="edgeStyle=orthogonalEdgeStyle;rounded=0;orthogonalLoop=1;jettySize=auto;html=1;exitX=0;exitY=0.5;exitDx=0;exitDy=0;" edge="1" parent="1" source="h5-Fzo54TgHvA8wAvlDn-16" target="h5-Fzo54TgHvA8wAvlDn-61">
          <mxGeometry relative="1" as="geometry" />
        </mxCell>
        <mxCell id="h5-Fzo54TgHvA8wAvlDn-16" value="module" style="rounded=1;whiteSpace=wrap;html=1;" vertex="1" parent="1">
          <mxGeometry x="580" y="320" width="120" height="60" as="geometry" />
        </mxCell>
        <mxCell id="h5-Fzo54TgHvA8wAvlDn-76" style="edgeStyle=orthogonalEdgeStyle;rounded=0;orthogonalLoop=1;jettySize=auto;html=1;exitX=0.5;exitY=1;exitDx=0;exitDy=0;exitPerimeter=0;entryX=0.5;entryY=1;entryDx=0;entryDy=0;" edge="1" parent="1" source="h5-Fzo54TgHvA8wAvlDn-17" target="h5-Fzo54TgHvA8wAvlDn-73">
          <mxGeometry relative="1" as="geometry" />
        </mxCell>
        <mxCell id="h5-Fzo54TgHvA8wAvlDn-17" value="Mongo&lt;br&gt;DB" style="shape=cylinder3;whiteSpace=wrap;html=1;boundedLbl=1;backgroundOutline=1;size=15;" vertex="1" parent="1">
          <mxGeometry x="220" y="122.5" width="60" height="80" as="geometry" />
        </mxCell>
        <mxCell id="h5-Fzo54TgHvA8wAvlDn-20" value="" style="rounded=1;whiteSpace=wrap;html=1;fillColor=#fff2cc;strokeColor=#d6b656;" vertex="1" parent="1">
          <mxGeometry x="730" y="180" width="300" height="220" as="geometry" />
        </mxCell>
        <mxCell id="h5-Fzo54TgHvA8wAvlDn-47" style="edgeStyle=orthogonalEdgeStyle;rounded=0;orthogonalLoop=1;jettySize=auto;html=1;exitX=0.25;exitY=0;exitDx=0;exitDy=0;entryX=0;entryY=0.5;entryDx=0;entryDy=0;" edge="1" parent="1" source="h5-Fzo54TgHvA8wAvlDn-14" target="h5-Fzo54TgHvA8wAvlDn-21">
          <mxGeometry relative="1" as="geometry" />
        </mxCell>
        <mxCell id="h5-Fzo54TgHvA8wAvlDn-14" value="notification&lt;br&gt;controller" style="rounded=1;whiteSpace=wrap;html=1;" vertex="1" parent="1">
          <mxGeometry x="750" y="310" width="120" height="60" as="geometry" />
        </mxCell>
        <mxCell id="h5-Fzo54TgHvA8wAvlDn-48" style="edgeStyle=orthogonalEdgeStyle;rounded=0;orthogonalLoop=1;jettySize=auto;html=1;exitX=0.75;exitY=0;exitDx=0;exitDy=0;entryX=1;entryY=0.5;entryDx=0;entryDy=0;" edge="1" parent="1" source="h5-Fzo54TgHvA8wAvlDn-13" target="h5-Fzo54TgHvA8wAvlDn-21">
          <mxGeometry relative="1" as="geometry" />
        </mxCell>
        <mxCell id="h5-Fzo54TgHvA8wAvlDn-66" style="edgeStyle=orthogonalEdgeStyle;rounded=0;orthogonalLoop=1;jettySize=auto;html=1;exitX=0.5;exitY=1;exitDx=0;exitDy=0;entryX=0.5;entryY=1;entryDx=0;entryDy=0;" edge="1" parent="1" source="h5-Fzo54TgHvA8wAvlDn-13" target="h5-Fzo54TgHvA8wAvlDn-14">
          <mxGeometry relative="1" as="geometry">
            <Array as="points">
              <mxPoint x="950" y="390" />
              <mxPoint x="810" y="390" />
            </Array>
          </mxGeometry>
        </mxCell>
        <mxCell id="h5-Fzo54TgHvA8wAvlDn-13" value="notification&lt;br&gt;service" style="rounded=1;whiteSpace=wrap;html=1;" vertex="1" parent="1">
          <mxGeometry x="890" y="310" width="120" height="60" as="geometry" />
        </mxCell>
        <mxCell id="h5-Fzo54TgHvA8wAvlDn-51" style="edgeStyle=orthogonalEdgeStyle;rounded=0;orthogonalLoop=1;jettySize=auto;html=1;exitX=0.5;exitY=0;exitDx=0;exitDy=0;entryX=0.75;entryY=0;entryDx=0;entryDy=0;" edge="1" parent="1" source="h5-Fzo54TgHvA8wAvlDn-21" target="h5-Fzo54TgHvA8wAvlDn-16">
          <mxGeometry relative="1" as="geometry" />
        </mxCell>
        <mxCell id="h5-Fzo54TgHvA8wAvlDn-21" value="module" style="rounded=1;whiteSpace=wrap;html=1;" vertex="1" parent="1">
          <mxGeometry x="820" y="230" width="120" height="60" as="geometry" />
        </mxCell>
        <mxCell id="h5-Fzo54TgHvA8wAvlDn-22" value="notification module" style="text;html=1;strokeColor=none;fillColor=none;align=center;verticalAlign=middle;whiteSpace=wrap;rounded=0;" vertex="1" parent="1">
          <mxGeometry x="825" y="180" width="110" height="30" as="geometry" />
        </mxCell>
        <mxCell id="h5-Fzo54TgHvA8wAvlDn-31" value="p-notification" style="text;html=1;strokeColor=none;fillColor=none;align=center;verticalAlign=middle;whiteSpace=wrap;rounded=0;" vertex="1" parent="1">
          <mxGeometry x="688.75" y="140" width="110" height="30" as="geometry" />
        </mxCell>
        <mxCell id="h5-Fzo54TgHvA8wAvlDn-34" value="" style="rounded=1;whiteSpace=wrap;html=1;fillColor=#fff2cc;strokeColor=#d6b656;" vertex="1" parent="1">
          <mxGeometry x="730" y="410" width="300" height="130" as="geometry" />
        </mxCell>
        <mxCell id="h5-Fzo54TgHvA8wAvlDn-53" style="edgeStyle=orthogonalEdgeStyle;rounded=0;orthogonalLoop=1;jettySize=auto;html=1;exitX=0;exitY=0.5;exitDx=0;exitDy=0;entryX=1;entryY=0.5;entryDx=0;entryDy=0;" edge="1" parent="1" source="h5-Fzo54TgHvA8wAvlDn-36" target="h5-Fzo54TgHvA8wAvlDn-37">
          <mxGeometry relative="1" as="geometry" />
        </mxCell>
        <mxCell id="h5-Fzo54TgHvA8wAvlDn-54" style="edgeStyle=orthogonalEdgeStyle;rounded=0;orthogonalLoop=1;jettySize=auto;html=1;exitX=1;exitY=0.5;exitDx=0;exitDy=0;entryX=1;entryY=0.5;entryDx=0;entryDy=0;" edge="1" parent="1" source="h5-Fzo54TgHvA8wAvlDn-36" target="h5-Fzo54TgHvA8wAvlDn-13">
          <mxGeometry relative="1" as="geometry">
            <Array as="points">
              <mxPoint x="1040" y="490" />
              <mxPoint x="1040" y="340" />
            </Array>
          </mxGeometry>
        </mxCell>
        <mxCell id="h5-Fzo54TgHvA8wAvlDn-36" value="notification&lt;br&gt;service" style="rounded=1;whiteSpace=wrap;html=1;" vertex="1" parent="1">
          <mxGeometry x="890" y="460" width="120" height="60" as="geometry" />
        </mxCell>
        <mxCell id="h5-Fzo54TgHvA8wAvlDn-52" style="edgeStyle=orthogonalEdgeStyle;rounded=0;orthogonalLoop=1;jettySize=auto;html=1;exitX=0;exitY=0.5;exitDx=0;exitDy=0;entryX=0.75;entryY=1;entryDx=0;entryDy=0;" edge="1" parent="1" source="h5-Fzo54TgHvA8wAvlDn-37" target="h5-Fzo54TgHvA8wAvlDn-16">
          <mxGeometry relative="1" as="geometry" />
        </mxCell>
        <mxCell id="h5-Fzo54TgHvA8wAvlDn-37" value="module" style="rounded=1;whiteSpace=wrap;html=1;" vertex="1" parent="1">
          <mxGeometry x="750" y="460" width="120" height="60" as="geometry" />
        </mxCell>
        <mxCell id="h5-Fzo54TgHvA8wAvlDn-38" value="email module" style="text;html=1;strokeColor=none;fillColor=none;align=center;verticalAlign=middle;whiteSpace=wrap;rounded=0;" vertex="1" parent="1">
          <mxGeometry x="825" y="410" width="110" height="30" as="geometry" />
        </mxCell>
        <mxCell id="h5-Fzo54TgHvA8wAvlDn-55" value="paras-backend" style="text;html=1;strokeColor=none;fillColor=none;align=center;verticalAlign=middle;whiteSpace=wrap;rounded=0;" vertex="1" parent="1">
          <mxGeometry x="745" y="90" width="110" height="30" as="geometry" />
        </mxCell>
        <mxCell id="h5-Fzo54TgHvA8wAvlDn-58" value="VMs" style="text;html=1;strokeColor=none;fillColor=none;align=center;verticalAlign=middle;whiteSpace=wrap;rounded=0;" vertex="1" parent="1">
          <mxGeometry x="225" y="80" width="110" height="30" as="geometry" />
        </mxCell>
        <mxCell id="h5-Fzo54TgHvA8wAvlDn-75" style="edgeStyle=orthogonalEdgeStyle;rounded=0;orthogonalLoop=1;jettySize=auto;html=1;exitX=1;exitY=0.5;exitDx=0;exitDy=0;exitPerimeter=0;entryX=0.5;entryY=0;entryDx=0;entryDy=0;" edge="1" parent="1" source="h5-Fzo54TgHvA8wAvlDn-59" target="h5-Fzo54TgHvA8wAvlDn-74">
          <mxGeometry relative="1" as="geometry" />
        </mxCell>
        <mxCell id="h5-Fzo54TgHvA8wAvlDn-59" value="Redis&lt;br&gt;Cache" style="shape=cylinder3;whiteSpace=wrap;html=1;boundedLbl=1;backgroundOutline=1;size=15;" vertex="1" parent="1">
          <mxGeometry x="300" y="122.5" width="60" height="80" as="geometry" />
        </mxCell>
        <mxCell id="h5-Fzo54TgHvA8wAvlDn-61" value="main" style="rounded=1;whiteSpace=wrap;html=1;" vertex="1" parent="1">
          <mxGeometry x="460" y="320" width="90" height="60" as="geometry" />
        </mxCell>
        <mxCell id="h5-Fzo54TgHvA8wAvlDn-77" style="edgeStyle=orthogonalEdgeStyle;rounded=0;orthogonalLoop=1;jettySize=auto;html=1;exitX=0.75;exitY=1;exitDx=0;exitDy=0;entryX=0.25;entryY=0;entryDx=0;entryDy=0;" edge="1" parent="1" source="h5-Fzo54TgHvA8wAvlDn-73" target="h5-Fzo54TgHvA8wAvlDn-16">
          <mxGeometry relative="1" as="geometry" />
        </mxCell>
        <mxCell id="h5-Fzo54TgHvA8wAvlDn-73" value="Mongo Module" style="rounded=1;whiteSpace=wrap;html=1;" vertex="1" parent="1">
          <mxGeometry x="460" y="190" width="90" height="60" as="geometry" />
        </mxCell>
        <mxCell id="h5-Fzo54TgHvA8wAvlDn-78" style="edgeStyle=orthogonalEdgeStyle;rounded=0;orthogonalLoop=1;jettySize=auto;html=1;exitX=0.5;exitY=1;exitDx=0;exitDy=0;entryX=0.5;entryY=0;entryDx=0;entryDy=0;" edge="1" parent="1" source="h5-Fzo54TgHvA8wAvlDn-74" target="h5-Fzo54TgHvA8wAvlDn-16">
          <mxGeometry relative="1" as="geometry">
            <Array as="points">
              <mxPoint x="605" y="270" />
              <mxPoint x="640" y="270" />
            </Array>
          </mxGeometry>
        </mxCell>
        <mxCell id="h5-Fzo54TgHvA8wAvlDn-74" value="Cache Module" style="rounded=1;whiteSpace=wrap;html=1;" vertex="1" parent="1">
          <mxGeometry x="560" y="190" width="90" height="60" as="geometry" />
        </mxCell>
        <mxCell id="h5-Fzo54TgHvA8wAvlDn-80" value="......" style="rounded=1;whiteSpace=wrap;html=1;fillColor=#dae8fc;strokeColor=#6c8ebf;" vertex="1" parent="1">
          <mxGeometry x="438.75" y="580" width="610" height="80" as="geometry" />
        </mxCell>
        <mxCell id="h5-Fzo54TgHvA8wAvlDn-81" value="p-&amp;lt;another_service&amp;gt;" style="text;html=1;strokeColor=none;fillColor=none;align=center;verticalAlign=middle;whiteSpace=wrap;rounded=0;" vertex="1" parent="1">
          <mxGeometry x="674.37" y="580" width="138.75" height="30" as="geometry" />
        </mxCell>
        <mxCell id="h5-Fzo54TgHvA8wAvlDn-83" value="main" style="rounded=1;whiteSpace=wrap;html=1;" vertex="1" parent="1">
          <mxGeometry x="460" y="590" width="90" height="60" as="geometry" />
        </mxCell>
        <mxCell id="h5-Fzo54TgHvA8wAvlDn-84" value="" style="rounded=1;whiteSpace=wrap;html=1;" vertex="1" parent="1">
          <mxGeometry x="170" y="377.5" width="180" height="155" as="geometry" />
        </mxCell>
        <mxCell id="h5-Fzo54TgHvA8wAvlDn-85" value="main" style="rounded=1;whiteSpace=wrap;html=1;" vertex="1" parent="1">
          <mxGeometry x="215" y="425" width="90" height="60" as="geometry" />
        </mxCell>
        <mxCell id="h5-Fzo54TgHvA8wAvlDn-86" value="p-notification" style="text;html=1;strokeColor=none;fillColor=none;align=center;verticalAlign=middle;whiteSpace=wrap;rounded=0;" vertex="1" parent="1">
          <mxGeometry x="205" y="380" width="110" height="30" as="geometry" />
        </mxCell>
      </root>
    </mxGraphModel>
  </diagram>
</mxfile>
